<svg width="100" height="100" viewBox="0 0 100 100" fill="none" xmlns="http://www.w3.org/2000/svg">
<g clip-path="url(#clip0_2_0)">
<path d="M96.9585 69.0108L58.3326 30.389V13.2614C58.3326 10.5575 57.7327 7.83274 56.5494 5.29116L55.6703 3.6247C54.6329 1.38738 52.4622 0 49.9999 0C47.5376 0 45.3669 1.38738 44.3754 3.52881L43.4046 5.38275C42.2672 7.83255 41.6672 10.5532 41.6672 13.2612V30.3889L3.05386 69.0026C1.08742 70.969 0.00411606 73.5813 0.00411606 76.3645V81.2475C0.00411606 82.0099 0.420683 82.7098 1.08742 83.0723C1.75397 83.4389 2.5707 83.4139 3.21224 82.9973L42.4755 57.8369C42.863 64.1405 43.388 69.4026 44.0295 75.8063L44.692 82.3683L30.1057 92.005C29.5182 92.3965 29.1683 93.0465 29.1683 93.7464V97.9127C29.1683 98.5417 29.4557 99.1417 29.9473 99.5375C30.4432 99.9375 31.0888 100.087 31.7013 99.95L49.9997 95.8794L68.2982 99.95C68.4482 99.9834 68.5981 100 68.7481 100C69.219 100 69.6772 99.8416 70.0521 99.5416C70.5437 99.1417 70.8312 98.5417 70.8312 97.9127V93.7464C70.8312 93.0465 70.4812 92.3924 69.8937 92.0091L55.3075 82.3849L55.9699 75.802C56.6115 69.4067 57.1364 64.1489 57.5239 57.8451L96.7872 82.9971C97.433 83.4137 98.2455 83.4346 98.9079 83.0721C99.5787 82.7096 99.9953 82.0097 99.9953 81.2473V76.3643C99.9957 73.5813 98.9167 70.969 96.9585 69.0108Z" fill="white"/>
</g>
<defs>
<clipPath id="clip0_2_0">
<rect width="100" height="100" fill="white"/>
</clipPath>
</defs>
</svg>
