<svg width="291" height="65" viewBox="0 0 291 65" fill="none" xmlns="http://www.w3.org/2000/svg">
<path d="M6 52C6 52 58 6 145.25 6C232.5 6 284.5 52 284.5 52" stroke="#E0E0E0" stroke-width="2" stroke-linecap="round" stroke-linejoin="round" stroke-dasharray="10 10"/>
<g clip-path="url(#clip0_67_0)">
<path d="M80.7919 26.5586L87.5724 15.3389L91.5635 14.3549C92.1936 14.1995 92.7941 13.9032 93.3183 13.4814L93.6561 13.1808C94.1179 12.8106 94.3164 12.225 94.175 11.6513C94.0335 11.0775 93.5855 10.6514 93.0295 10.5434L92.5417 10.4237C91.9055 10.2994 91.2371 10.3159 90.6061 10.4715L86.615 11.4555L75.3986 4.67632C74.8274 4.33108 74.1565 4.22873 73.5079 4.38863L72.3701 4.66918C72.1924 4.71299 72.0533 4.85027 72.0071 5.02646C71.96 5.20284 72.0127 5.39172 72.1467 5.51728L80.2654 13.2209C78.8188 13.6734 77.6228 14.098 76.1674 14.6154L74.6764 15.1468L71.5928 12.3016C71.4678 12.1872 71.2963 12.143 71.1332 12.1832L70.1623 12.4225C70.0158 12.4587 69.8925 12.5601 69.8285 12.6974C69.7638 12.836 69.7659 12.995 69.8331 13.1298L71.833 17.1599L71.9358 21.6577C71.9366 21.6946 71.9414 21.7305 71.95 21.7654C71.977 21.8751 72.0403 21.9728 72.1317 22.043C72.2532 22.1345 72.4095 22.167 72.5561 22.1309L73.5269 21.8915C73.69 21.8513 73.8223 21.7322 73.8779 21.5733L75.2825 17.6214L76.8545 17.3976C78.3816 17.1796 79.6369 16.9998 81.1281 16.728L77.523 27.3222C77.463 27.4967 77.5048 27.6872 77.6274 27.8207C77.7504 27.9562 77.9374 28.0131 78.1151 27.9693L79.2529 27.6887C79.9014 27.5289 80.4481 27.1274 80.7919 26.5586Z" fill="#5C40CC"/>
</g>
<circle cx="285" cy="52" r="6" fill="#0EC3AE"/>
<line x1="285" y1="55" x2="285" y2="64" stroke="#0EC3AE" stroke-width="2" stroke-linecap="round" stroke-linejoin="round"/>
<circle cx="6" cy="52" r="6" fill="#9698A9"/>
<line x1="6" y1="55" x2="6" y2="64" stroke="#9698A9" stroke-width="2" stroke-linecap="round" stroke-linejoin="round"/>
<defs>
<clipPath id="clip0_67_0">
<rect width="24" height="24" fill="white" transform="translate(91.3022) rotate(76.1493)"/>
</clipPath>
</defs>
</svg>
