<svg width="300" height="150" viewBox="0 0 300 150" fill="none" xmlns="http://www.w3.org/2000/svg">
<path d="M12.7843 63.4724L11.6449 63.9148L38.6422 133.446L39.7816 133.004L12.7843 63.4724Z" fill="#D4E3ED"/>
<path d="M21.2705 150C21.2325 147.474 21.6973 144.965 22.6379 142.62C23.5784 140.275 24.9759 138.14 26.7491 136.34C28.5223 134.54 30.6357 133.11 32.9665 132.135C35.2972 131.159 37.7987 130.656 40.3254 130.656C42.8521 130.656 45.3536 131.159 47.6843 132.135C50.015 133.11 52.1285 134.54 53.9016 136.34C55.6748 138.14 57.0723 140.275 58.0129 142.62C58.9534 144.965 59.4183 147.474 59.3803 150" fill="#EFF5F9"/>
<path d="M73.426 15.6258L0 67.2305L0.702803 68.2305L74.1288 16.6258L73.426 15.6258Z" fill="#D4E3ED"/>
<path d="M10.8679 67.3333C15.037 67.3333 18.4167 63.9536 18.4167 59.7845C18.4167 55.6154 15.037 52.2357 10.8679 52.2357C6.69881 52.2357 3.31909 55.6154 3.31909 59.7845C3.31909 63.9536 6.69881 67.3333 10.8679 67.3333Z" fill="#EFF5F9"/>
<path d="M71.7924 21.5713C77.4352 21.5713 82.0096 16.997 82.0096 11.3542C82.0096 5.71145 77.4352 1.13708 71.7924 1.13708C66.1497 1.13708 61.5753 5.71145 61.5753 11.3542C61.5753 16.997 66.1497 21.5713 71.7924 21.5713Z" fill="#EFF5F9"/>
<path d="M82.0094 11.3541C82.0105 9.75252 81.6347 8.17314 80.9125 6.74364C80.1903 5.31415 79.1418 4.07464 77.8519 3.12531C74.0216 4.84681 70.3763 9.34424 68.4999 15.2275C67.9401 16.9658 67.5692 18.7593 67.3938 20.5771C68.952 21.3238 70.6741 21.6632 72.3991 21.5635C74.1241 21.4638 75.7956 20.9282 77.2574 20.0069C78.7192 19.0855 79.9234 17.8085 80.7574 16.2953C81.5915 14.782 82.0282 13.082 82.0266 11.3541H82.0094Z" fill="#B9D1E1"/>
<path d="M89.4421 53.0276L74.6371 41.033C72.5278 39.3255 70.7756 37.219 69.4806 34.8341C68.1856 32.4492 67.3732 29.8325 67.0899 27.1335C66.8065 24.4345 67.0577 21.7061 67.8291 19.1043C68.6005 16.5024 69.8771 14.078 71.5858 11.9696L75.0761 7.66588C76.7826 5.55622 78.8881 3.80344 81.2722 2.50765C83.6563 1.21187 86.2723 0.398468 88.9708 0.113909C91.6693 -0.17065 94.3975 0.079208 96.9994 0.849219C99.6013 1.61923 102.026 2.8943 104.135 4.6016L118.94 16.5962L89.4421 53.0276Z" fill="#EFF5F9"/>
<path d="M118.919 16.6522C116.366 14.5821 109.928 18.1155 103.266 24.8294C104.769 24.8806 106.228 25.3524 107.477 26.1912C108.726 27.03 109.714 28.2021 110.33 29.5745C110.946 30.9469 111.165 32.4646 110.962 33.9551C110.759 35.4456 110.141 36.8493 109.181 38.0067C108.22 39.164 106.953 40.0288 105.526 40.5027C104.098 40.9765 102.566 41.0405 101.104 40.6874C99.6414 40.3343 98.3074 39.5782 97.2533 38.505C96.1992 37.4318 95.4671 36.0845 95.1403 34.6161C89.2785 43.0902 86.7393 50.8628 89.4421 53.0535C92.6096 55.6357 101.777 49.5545 109.915 39.5052C118.053 29.4559 122.086 19.2087 118.919 16.6522Z" fill="#D4E3ED"/>
<path d="M109.235 37.8998C110.175 36.7377 110.772 35.3368 110.96 33.8542C111.148 32.3716 110.92 30.8659 110.3 29.506C109.68 28.1461 108.694 26.9858 107.451 26.1552C106.209 25.3246 104.759 24.8565 103.266 24.8035C101.568 26.5158 99.9579 28.3127 98.4414 30.1875C97.2492 31.6594 96.1475 33.1355 95.1404 34.5902C95.4693 36.0657 96.2076 37.4185 97.2705 38.4934C98.3334 39.5683 99.6778 40.3218 101.149 40.6673C102.621 41.0129 104.16 40.9365 105.591 40.447C107.021 39.9575 108.284 39.0746 109.235 37.8998Z" fill="#B9D1E1"/>
<path d="M268.556 3.14697H263.267V7.80796H268.556V3.14697Z" fill="#B9D1E1"/>
<path d="M271.72 1.56317H260.104V3.8958H271.72V1.56317Z" fill="#E5EEF4"/>
<path d="M265.909 75.4759C284.715 75.4759 299.961 60.2306 299.961 41.4245C299.961 22.6185 284.715 7.37317 265.909 7.37317C247.103 7.37317 231.858 22.6185 231.858 41.4245C231.858 60.2306 247.103 75.4759 265.909 75.4759Z" fill="#E5EEF4"/>
<path d="M265.909 70.6902C282.072 70.6902 295.175 57.5875 295.175 41.4246C295.175 25.2616 282.072 12.159 265.909 12.159C249.746 12.159 236.644 25.2616 236.644 41.4246C236.644 57.5875 249.746 70.6902 265.909 70.6902Z" fill="white"/>
<path d="M290.166 31.1346L287.988 32.4059L288.15 32.6847L290.329 31.4134L290.166 31.1346Z" fill="#D4E3ED"/>
<path d="M276.218 17.1056L275.162 19.3958L275.455 19.5309L276.511 17.2408L276.218 17.1056Z" fill="#D4E3ED"/>
<path d="M284.396 22.7148L282.613 24.4982L282.841 24.7264L284.624 22.9431L284.396 22.7148Z" fill="#D4E3ED"/>
<path d="M241.507 31.1179L241.344 31.3965L243.522 32.6697L243.684 32.3911L241.507 31.1179Z" fill="#D4E3ED"/>
<path d="M255.432 17.1319L255.138 17.2672L256.195 19.5571L256.488 19.4219L255.432 17.1319Z" fill="#D4E3ED"/>
<path d="M247.268 22.6969L247.04 22.9251L248.823 24.7084L249.051 24.4802L247.268 22.6969Z" fill="#D4E3ED"/>
<path d="M243.514 49.5894L241.336 50.8607L241.499 51.1395L243.677 49.8682L243.514 49.5894Z" fill="#D4E3ED"/>
<path d="M256.185 62.6656L255.129 64.9557L255.422 65.0909L256.478 62.8008L256.185 62.6656Z" fill="#D4E3ED"/>
<path d="M248.827 57.5127L247.044 59.2961L247.272 59.5243L249.055 57.741L248.827 57.5127Z" fill="#D4E3ED"/>
<path d="M288.142 49.5514L287.979 49.83L290.156 51.1032L290.319 50.8246L288.142 49.5514Z" fill="#D4E3ED"/>
<path d="M275.475 62.654L275.182 62.7893L276.239 65.0791L276.532 64.9438L275.475 62.654Z" fill="#D4E3ED"/>
<path d="M282.841 57.529L282.612 57.7573L284.396 59.5406L284.624 59.3123L282.841 57.529Z" fill="#D4E3ED"/>
<path d="M241.86 41.1018H239.338V41.7474H241.86V41.1018Z" fill="#D4E3ED"/>
<path d="M292.214 41.1018H289.692V41.7474H292.214V41.1018Z" fill="#D4E3ED"/>
<path d="M266.232 65.5042H265.586V68.0261H266.232V65.5042Z" fill="#D4E3ED"/>
<path d="M266.232 14.823H265.586V17.345H266.232V14.823Z" fill="#D4E3ED"/>
<path d="M265.995 21.0032H265.832V41.4246H265.995V21.0032Z" fill="#B9D1E1"/>
<path d="M266.06 42.2251C266.155 42.3117 266.268 42.3778 266.39 42.4195C266.512 42.4611 266.641 42.4774 266.769 42.4673C266.898 42.4573 267.023 42.4211 267.137 42.3609C267.251 42.3008 267.352 42.2179 267.433 42.1175L280.275 26.4949L266.017 40.8393C265.925 40.9315 265.854 41.0413 265.806 41.162C265.759 41.2827 265.736 41.4118 265.74 41.5415C265.744 41.6711 265.775 41.7986 265.83 41.9162C265.885 42.0337 265.963 42.1388 266.06 42.2251Z" fill="#B9D1E1"/>
<path d="M221.976 23.8308C221.666 23.8308 221.368 23.7075 221.149 23.488C220.929 23.2684 220.806 22.9707 220.806 22.6602C220.804 20.8521 220.084 19.1188 218.805 17.8407C217.526 16.5626 215.792 15.8442 213.984 15.843C213.686 15.8249 213.405 15.6935 213.2 15.4756C212.995 15.2576 212.88 14.9696 212.88 14.6703C212.88 14.371 212.995 14.0829 213.2 13.865C213.405 13.647 213.686 13.5156 213.984 13.4975C215.189 13.4981 216.382 13.736 217.495 14.1977C218.608 14.6594 219.618 15.3358 220.47 16.1883C221.321 17.0408 221.996 18.0526 222.456 19.1661C222.916 20.2795 223.152 21.4727 223.151 22.6774C223.147 22.9856 223.021 23.2796 222.801 23.4956C222.581 23.7115 222.285 23.832 221.976 23.8308Z" fill="#3C288A"/>
<path d="M201.039 23.8308C200.885 23.8314 200.732 23.8016 200.589 23.743C200.447 23.6844 200.317 23.5983 200.208 23.4895C200.099 23.3807 200.012 23.2515 199.953 23.1092C199.894 22.9669 199.864 22.8143 199.864 22.6602C199.863 20.8533 199.145 19.1206 197.867 17.8425C196.59 16.5644 194.858 15.8453 193.051 15.8431C192.891 15.8528 192.731 15.8296 192.58 15.7751C192.429 15.7205 192.291 15.6357 192.174 15.5258C192.058 15.416 191.965 15.2834 191.901 15.1363C191.838 14.9892 191.805 14.8306 191.805 14.6703C191.805 14.51 191.838 14.3514 191.901 14.2043C191.965 14.0571 192.058 13.9246 192.174 13.8147C192.291 13.7049 192.429 13.6201 192.58 13.5655C192.731 13.511 192.891 13.4878 193.051 13.4975C195.482 13.5009 197.813 14.4699 199.531 16.1913C201.248 17.9128 202.212 20.2458 202.209 22.6774C202.205 22.9849 202.079 23.2783 201.86 23.4941C201.641 23.7099 201.346 23.8309 201.039 23.8308Z" fill="#3C288A"/>
<path d="M180.097 23.8308C179.786 23.8308 179.488 23.7075 179.269 23.488C179.049 23.2684 178.926 22.9707 178.926 22.6602C178.924 20.8529 178.205 19.1202 176.927 17.8423C175.649 16.5643 173.916 15.8453 172.109 15.843C171.81 15.8249 171.529 15.6935 171.324 15.4756C171.119 15.2576 171.005 14.9696 171.005 14.6703C171.005 14.371 171.119 14.0829 171.324 13.865C171.529 13.647 171.81 13.5156 172.109 13.4975C173.314 13.4981 174.506 13.736 175.619 14.1977C176.732 14.6594 177.743 15.3358 178.594 16.1883C179.445 17.0408 180.12 18.0526 180.581 19.1661C181.041 20.2795 181.277 21.4727 181.276 22.6774C181.271 22.9864 181.145 23.281 180.924 23.4971C180.703 23.7132 180.406 23.8331 180.097 23.8308Z" fill="#3C288A"/>
<path d="M159.159 23.8308C159.005 23.8314 158.852 23.8016 158.709 23.743C158.567 23.6844 158.437 23.5983 158.328 23.4895C158.219 23.3807 158.132 23.2515 158.073 23.1092C158.014 22.9669 157.984 22.8143 157.984 22.6602C157.983 20.8533 157.265 19.1206 155.987 17.8425C154.71 16.5644 152.978 15.8453 151.171 15.8431C151.011 15.8528 150.851 15.8296 150.7 15.7751C150.549 15.7205 150.411 15.6357 150.295 15.5258C150.178 15.416 150.085 15.2834 150.021 15.1363C149.958 14.9892 149.925 14.8306 149.925 14.6703C149.925 14.51 149.958 14.3514 150.021 14.2043C150.085 14.0571 150.178 13.9246 150.295 13.8147C150.411 13.7049 150.549 13.6201 150.7 13.5655C150.851 13.511 151.011 13.4878 151.171 13.4975C153.603 13.5009 155.933 14.4699 157.651 16.1913C159.368 17.9128 160.332 20.2458 160.329 22.6774C160.325 22.9849 160.2 23.2783 159.98 23.4941C159.761 23.7099 159.466 23.8309 159.159 23.8308Z" fill="#3C288A"/>
<path d="M138.238 23.8308C137.928 23.8308 137.63 23.7075 137.41 23.488C137.191 23.2684 137.067 22.9707 137.067 22.6602C137.065 20.8529 136.346 19.1202 135.068 17.8423C133.79 16.5643 132.058 15.8453 130.25 15.843C129.951 15.8249 129.671 15.6935 129.466 15.4756C129.261 15.2576 129.146 14.9696 129.146 14.6703C129.146 14.371 129.261 14.0829 129.466 13.865C129.671 13.647 129.951 13.5156 130.25 13.4975C132.679 13.5055 135.005 14.4764 136.719 16.1974C138.433 17.9183 139.394 20.2488 139.391 22.6774C139.387 22.9819 139.264 23.2727 139.049 23.4881C138.833 23.7034 138.543 23.8264 138.238 23.8308Z" fill="#3C288A"/>
<path d="M203.147 150H83.2102L112.381 22.4236H232.314L203.147 150Z" fill="#5C40CC"/>
<path d="M123.932 124.737L120.055 141.634H140.993L144.87 124.737H123.932Z" fill="#7D62E8"/>
<path d="M97.9679 124.737L94.0945 141.634H116.706L120.584 124.737H97.9679Z" fill="#7D62E8"/>
<path d="M124.832 106.209H102.22L98.7166 121.475H121.333L124.832 106.209Z" fill="#7D62E8"/>
<path d="M148.967 121.475H169.905L173.408 106.209H152.471L148.967 121.475Z" fill="#7D62E8"/>
<path d="M128.18 106.209L124.681 121.475H145.619L149.122 106.209H128.18Z" fill="#7D62E8"/>
<path d="M129.084 87.6814H106.472L102.969 102.947H125.581L129.084 87.6814Z" fill="#7D62E8"/>
<path d="M153.37 87.6814H132.432L128.929 102.947H149.871L153.37 87.6814Z" fill="#7D62E8"/>
<path d="M154.119 84.4192L157.997 67.5183H137.054L133.181 84.4192H154.119Z" fill="#7D62E8"/>
<path d="M173.253 121.475H195.87L199.369 106.209H176.757L173.253 121.475Z" fill="#7D62E8"/>
<path d="M204.37 84.4192L208.243 67.5183H185.631L181.758 84.4192H204.37Z" fill="#7D62E8"/>
<path d="M178.409 84.4192L182.283 67.5183H161.345L157.467 84.4192H178.409Z" fill="#7D62E8"/>
<path d="M181.009 87.6814L177.505 102.947H200.117L203.621 87.6814H181.009Z" fill="#7D62E8"/>
<path d="M168.631 141.634H191.243L195.121 124.737H172.505L168.631 141.634Z" fill="#7D62E8"/>
<path d="M148.219 124.737L144.341 141.634H165.283L169.156 124.737H148.219Z" fill="#7D62E8"/>
<path d="M133.71 67.5183H111.094L107.221 84.4192H129.833L133.71 67.5183Z" fill="#7D62E8"/>
<path d="M160.398 96.4654C164.177 97.2616 168.145 100.597 174.747 100.377L177.66 87.6642H156.718L154.747 96.2717C156.629 96.043 158.536 96.1083 160.398 96.4654Z" fill="#00BF99"/>
<path d="M174.157 102.947L174.747 100.365C168.132 100.584 164.177 97.2489 160.398 96.4527C158.536 96.0985 156.629 96.036 154.747 96.2676L153.22 102.934L174.157 102.947Z" fill="#00B084"/>
<path d="M232.314 22.4236L203.147 150H262.273L232.314 22.4236Z" fill="#3C288A"/>
<path d="M232.314 138.5L203.147 150H262.273L232.314 138.5Z" fill="#27195F"/>
<path d="M213.984 31.8186C211.589 31.7667 209.31 30.7788 207.634 29.0665C205.959 27.3542 205.02 25.0538 205.02 22.6581C205.02 20.2623 205.959 17.9619 207.634 16.2496C209.31 14.5374 211.589 13.5494 213.984 13.4975C214.144 13.4878 214.305 13.511 214.455 13.5655C214.606 13.6201 214.744 13.7049 214.861 13.8147C214.977 13.9246 215.07 14.0571 215.134 14.2043C215.198 14.3514 215.23 14.51 215.23 14.6703C215.23 14.8306 215.198 14.9892 215.134 15.1363C215.07 15.2834 214.977 15.416 214.861 15.5258C214.744 15.6357 214.606 15.7205 214.455 15.7751C214.305 15.8296 214.144 15.8528 213.984 15.8431C212.207 15.8877 210.517 16.6254 209.275 17.8985C208.033 19.1717 207.339 20.8797 207.339 22.6581C207.339 24.4364 208.033 26.1444 209.275 27.4176C210.517 28.6908 212.207 29.4284 213.984 29.4731C214.144 29.4634 214.305 29.4865 214.455 29.5411C214.606 29.5956 214.744 29.6804 214.861 29.7903C214.977 29.9001 215.07 30.0327 215.134 30.1799C215.198 30.327 215.23 30.4856 215.23 30.6459C215.23 30.8061 215.198 30.9647 215.134 31.1119C215.07 31.259 214.977 31.3916 214.861 31.5014C214.744 31.6113 214.606 31.6961 214.455 31.7506C214.305 31.8052 214.144 31.8283 213.984 31.8186Z" fill="#3C288A"/>
<path d="M193.051 31.8186C191.831 31.8451 190.618 31.6277 189.484 31.1792C188.349 30.7307 187.316 30.0602 186.444 29.2069C185.572 28.3537 184.879 27.3349 184.406 26.2103C183.933 25.0857 183.69 23.878 183.69 22.6581C183.69 21.4381 183.933 20.2304 184.406 19.1058C184.879 17.9813 185.572 16.9625 186.444 16.1092C187.316 15.256 188.349 14.5854 189.484 14.1369C190.618 13.6885 191.831 13.4711 193.051 13.4975C193.35 13.5156 193.63 13.6471 193.835 13.865C194.04 14.083 194.155 14.371 194.155 14.6703C194.155 14.9696 194.04 15.2576 193.835 15.4756C193.63 15.6935 193.35 15.825 193.051 15.8431C192.141 15.8202 191.237 15.9796 190.39 16.3118C189.543 16.644 188.771 17.1423 188.12 17.7774C187.469 18.4125 186.951 19.1715 186.598 20.0097C186.244 20.848 186.062 21.7484 186.062 22.6581C186.062 23.5677 186.244 24.4682 186.598 25.3064C186.951 26.1446 187.469 26.9036 188.12 27.5387C188.771 28.1738 189.543 28.6721 190.39 29.0043C191.237 29.3366 192.141 29.4959 193.051 29.4731C193.35 29.4912 193.63 29.6226 193.835 29.8406C194.04 30.0585 194.155 30.3466 194.155 30.6459C194.155 30.9452 194.04 31.2332 193.835 31.4511C193.63 31.6691 193.35 31.8005 193.051 31.8186Z" fill="#3C288A"/>
<path d="M172.109 31.8186C169.713 31.7667 167.434 30.7788 165.758 29.0665C164.083 27.3542 163.144 25.0538 163.144 22.6581C163.144 20.2623 164.083 17.9619 165.758 16.2496C167.434 14.5374 169.713 13.5494 172.109 13.4975C172.269 13.4878 172.429 13.511 172.58 13.5655C172.73 13.6201 172.868 13.7049 172.985 13.8147C173.102 13.9246 173.195 14.0571 173.258 14.2043C173.322 14.3514 173.355 14.51 173.355 14.6703C173.355 14.8306 173.322 14.9892 173.258 15.1363C173.195 15.2834 173.102 15.416 172.985 15.5258C172.868 15.6357 172.73 15.7205 172.58 15.7751C172.429 15.8296 172.269 15.8528 172.109 15.8431C170.331 15.8877 168.641 16.6254 167.399 17.8985C166.158 19.1717 165.463 20.8797 165.463 22.6581C165.463 24.4364 166.158 26.1444 167.399 27.4176C168.641 28.6908 170.331 29.4284 172.109 29.4731C172.269 29.4634 172.429 29.4865 172.58 29.5411C172.73 29.5956 172.868 29.6804 172.985 29.7903C173.102 29.9001 173.195 30.0327 173.258 30.1799C173.322 30.327 173.355 30.4856 173.355 30.6459C173.355 30.8061 173.322 30.9647 173.258 31.1119C173.195 31.259 173.102 31.3916 172.985 31.5014C172.868 31.6113 172.73 31.6961 172.58 31.7506C172.429 31.8052 172.269 31.8283 172.109 31.8186Z" fill="#3C288A"/>
<path d="M151.171 31.8186C149.951 31.8451 148.739 31.6277 147.604 31.1792C146.469 30.7307 145.436 30.0602 144.564 29.2069C143.692 28.3537 142.999 27.3349 142.526 26.2103C142.053 25.0857 141.81 23.878 141.81 22.6581C141.81 21.4381 142.053 20.2304 142.526 19.1058C142.999 17.9813 143.692 16.9625 144.564 16.1092C145.436 15.256 146.469 14.5854 147.604 14.1369C148.739 13.6885 149.951 13.4711 151.171 13.4975C151.47 13.5156 151.75 13.6471 151.955 13.865C152.161 14.083 152.275 14.371 152.275 14.6703C152.275 14.9696 152.161 15.2576 151.955 15.4756C151.75 15.6935 151.47 15.825 151.171 15.8431C150.262 15.8202 149.357 15.9796 148.51 16.3118C147.663 16.644 146.891 17.1423 146.24 17.7774C145.589 18.4125 145.071 19.1715 144.718 20.0097C144.365 20.848 144.183 21.7484 144.183 22.6581C144.183 23.5677 144.365 24.4682 144.718 25.3064C145.071 26.1446 145.589 26.9036 146.24 27.5387C146.891 28.1738 147.663 28.6721 148.51 29.0043C149.357 29.3366 150.262 29.4959 151.171 29.4731C151.47 29.4912 151.75 29.6226 151.955 29.8406C152.161 30.0585 152.275 30.3466 152.275 30.6459C152.275 30.9452 152.161 31.2332 151.955 31.4511C151.75 31.6691 151.47 31.8005 151.171 31.8186Z" fill="#3C288A"/>
<path d="M130.229 31.8186C127.834 31.7667 125.554 30.7788 123.878 29.0665C122.203 27.3542 121.265 25.0538 121.265 22.6581C121.265 20.2623 122.203 17.9619 123.878 16.2496C125.554 14.5374 127.834 13.5494 130.229 13.4975C130.389 13.4878 130.549 13.511 130.7 13.5655C130.85 13.6201 130.988 13.7049 131.105 13.8147C131.222 13.9246 131.315 14.0571 131.378 14.2043C131.442 14.3514 131.475 14.51 131.475 14.6703C131.475 14.8306 131.442 14.9892 131.378 15.1363C131.315 15.2834 131.222 15.416 131.105 15.5258C130.988 15.6357 130.85 15.7205 130.7 15.7751C130.549 15.8296 130.389 15.8528 130.229 15.8431C128.451 15.8877 126.761 16.6254 125.519 17.8985C124.278 19.1717 123.583 20.8797 123.583 22.6581C123.583 24.4364 124.278 26.1444 125.519 27.4176C126.761 28.6908 128.451 29.4284 130.229 29.4731C130.389 29.4634 130.549 29.4865 130.7 29.5411C130.85 29.5956 130.988 29.6804 131.105 29.7903C131.222 29.9001 131.315 30.0327 131.378 30.1799C131.442 30.327 131.475 30.4856 131.475 30.6459C131.475 30.8061 131.442 30.9647 131.378 31.1119C131.315 31.259 131.222 31.3916 131.105 31.5014C130.988 31.6113 130.85 31.6961 130.7 31.7506C130.549 31.8052 130.389 31.8283 130.229 31.8186Z" fill="#3C288A"/>
<path d="M151.292 40.7576H117.158L113.182 58.1017H147.311L151.292 40.7576Z" fill="#3C288A"/>
<path d="M194.832 43.413H160.704L159.796 47.3638H193.924L194.832 43.413Z" fill="#7D62E8"/>
<path d="M211.807 51.3447H158.901L157.997 55.2956H210.903L211.807 51.3447Z" fill="#7D62E8"/>
<path d="M165.769 98.3893L161.702 93.4055L162.903 92.4286L165.894 96.0954L176.907 85.2972L177.992 86.4033L165.769 98.3893Z" fill="white"/>
</svg>
